<?xml version="1.0" encoding="utf-8"?>
<!-- Generator: Adobe Illustrator 14.0.0, SVG Export Plug-In . SVG Version: 6.00 Build 43363)  -->
<!DOCTYPE svg PUBLIC "-//W3C//DTD SVG 1.1//EN" "http://www.w3.org/Graphics/SVG/1.1/DTD/svg11.dtd">
<svg version="1.1" id="Ebene_1" xmlns="http://www.w3.org/2000/svg" xmlns:xlink="http://www.w3.org/1999/xlink" x="0px" y="0px"
	 width="283.46px" height="141.73px" viewBox="0 0 283.46 141.73" enable-background="new 0 0 283.46 141.73" xml:space="preserve">
<path fill="#FFFFFF" d="M259.148,122.131c0,1.722-0.322,3.224-0.971,4.538c-0.633,1.305-1.547,2.399-2.712,3.278
	c-1.179,0.879-2.562,1.538-4.169,1.976c-1.592,0.438-3.335,0.657-5.206,0.657c-1.131,0-2.205-0.08-3.232-0.253
	c-1.028-0.164-1.94-0.382-2.749-0.636c-0.819-0.265-1.487-0.532-2.031-0.798c-0.542-0.274-0.936-0.53-1.189-0.762
	c-0.242-0.241-0.438-0.61-0.577-1.119c-0.127-0.509-0.195-1.259-0.195-2.25c0-0.647,0.021-1.18,0.068-1.573
	c0.046-0.391,0.115-0.701,0.196-0.943c0.092-0.232,0.209-0.394,0.349-0.475c0.124-0.081,0.298-0.117,0.506-0.117
	c0.242,0,0.613,0.14,1.097,0.429c0.484,0.276,1.086,0.589,1.813,0.922c0.716,0.337,1.559,0.659,2.518,0.949
	c0.958,0.298,2.042,0.437,3.256,0.437c0.773,0,1.455-0.08,2.054-0.229c0.589-0.161,1.109-0.381,1.549-0.682
	c0.449-0.29,0.773-0.659,1.004-1.12c0.219-0.45,0.336-0.97,0.336-1.548c0-0.681-0.209-1.258-0.625-1.741
	c-0.417-0.487-0.97-0.913-1.661-1.27c-0.683-0.359-1.455-0.707-2.334-1.018c-0.865-0.313-1.754-0.668-2.666-1.05
	s-1.802-0.821-2.678-1.314c-0.866-0.497-1.641-1.111-2.335-1.825c-0.681-0.729-1.234-1.595-1.648-2.61
	c-0.417-1.018-0.624-2.229-0.624-3.647c0-1.443,0.277-2.774,0.844-3.972c0.564-1.213,1.372-2.243,2.436-3.106
	c1.049-0.855,2.344-1.514,3.866-1.985c1.525-0.475,3.233-0.717,5.126-0.717c0.946,0,1.871,0.069,2.761,0.209
	c0.889,0.126,1.696,0.298,2.412,0.508c0.728,0.193,1.327,0.413,1.824,0.658c0.497,0.23,0.854,0.437,1.073,0.599
	c0.21,0.174,0.359,0.348,0.451,0.509c0.092,0.172,0.163,0.382,0.207,0.611c0.046,0.242,0.082,0.531,0.116,0.879
	c0.034,0.358,0.06,0.784,0.06,1.305c0,0.612-0.025,1.108-0.06,1.489c-0.034,0.382-0.093,0.692-0.173,0.91
	c-0.069,0.229-0.186,0.382-0.313,0.463c-0.139,0.081-0.299,0.117-0.473,0.117c-0.209,0-0.521-0.117-0.946-0.36
	c-0.44-0.231-0.971-0.483-1.617-0.763c-0.636-0.264-1.386-0.519-2.228-0.761c-0.843-0.229-1.813-0.346-2.887-0.346
	c-0.773,0-1.431,0.067-1.998,0.229c-0.566,0.165-1.026,0.385-1.386,0.683c-0.37,0.288-0.635,0.636-0.818,1.027
	c-0.175,0.394-0.267,0.819-0.267,1.272c0,0.691,0.209,1.279,0.646,1.754c0.428,0.472,0.981,0.889,1.687,1.258
	c0.705,0.357,1.49,0.692,2.39,1.015c0.889,0.314,1.79,0.661,2.701,1.03c0.911,0.367,1.813,0.807,2.701,1.304
	c0.89,0.497,1.686,1.095,2.391,1.825c0.692,0.715,1.259,1.58,1.687,2.584C258.929,119.568,259.148,120.757,259.148,122.131
	 M233.024,90.266c0,1.722-0.346,2.898-1.05,3.557c-0.693,0.659-1.998,0.982-3.892,0.982c-1.915,0-3.197-0.313-3.868-0.946
	c-0.669-0.637-1.003-1.768-1.003-3.42c0-1.708,0.347-2.897,1.039-3.565c0.681-0.672,1.984-1.007,3.901-1.007
	c1.893,0,3.188,0.324,3.857,0.97C232.69,87.484,233.024,88.627,233.024,90.266z M232.378,130.651c0,0.23-0.057,0.431-0.194,0.601
	c-0.141,0.162-0.371,0.312-0.693,0.417c-0.336,0.114-0.763,0.197-1.306,0.254c-0.543,0.056-1.222,0.092-2.065,0.092
	c-0.832,0-1.526-0.036-2.056-0.092c-0.544-0.057-0.981-0.14-1.305-0.254c-0.335-0.105-0.566-0.255-0.694-0.417
	c-0.138-0.17-0.207-0.37-0.207-0.601v-30.097c0-0.233,0.069-0.429,0.207-0.591c0.128-0.173,0.359-0.324,0.694-0.439
	c0.323-0.127,0.761-0.217,1.305-0.288c0.529-0.067,1.224-0.103,2.056-0.103c0.844,0,1.522,0.035,2.065,0.103
	c0.543,0.071,0.97,0.161,1.306,0.288c0.322,0.115,0.553,0.267,0.693,0.439c0.138,0.162,0.194,0.357,0.194,0.591V130.651z
	 M221.587,103.291c0,0.817-0.024,1.477-0.07,1.995c-0.046,0.521-0.114,0.925-0.206,1.226c-0.081,0.287-0.208,0.496-0.348,0.6
	c-0.149,0.117-0.335,0.173-0.566,0.173c-0.172,0-0.381-0.036-0.6-0.114c-0.23-0.081-0.485-0.162-0.763-0.255
	c-0.288-0.093-0.601-0.174-0.934-0.255c-0.336-0.081-0.705-0.113-1.119-0.113c-0.473,0-0.947,0.09-1.422,0.275
	c-0.472,0.195-0.958,0.497-1.467,0.9c-0.508,0.403-1.038,0.946-1.592,1.628c-0.555,0.669-1.145,1.512-1.778,2.494v18.807
	c0,0.23-0.06,0.431-0.196,0.601c-0.138,0.162-0.371,0.312-0.692,0.417c-0.335,0.114-0.763,0.197-1.305,0.254
	c-0.543,0.056-1.224,0.092-2.067,0.092c-0.831,0-1.524-0.036-2.054-0.092c-0.543-0.057-0.981-0.14-1.307-0.254
	c-0.334-0.105-0.564-0.255-0.691-0.417c-0.139-0.17-0.209-0.37-0.209-0.601v-30.168c0-0.22,0.057-0.427,0.174-0.587
	c0.115-0.176,0.312-0.313,0.612-0.431c0.287-0.112,0.669-0.193,1.131-0.252c0.461-0.059,1.038-0.08,1.743-0.08
	c0.715,0,1.317,0.021,1.79,0.08s0.843,0.14,1.098,0.252c0.265,0.117,0.449,0.255,0.554,0.431c0.115,0.16,0.173,0.367,0.173,0.587
	v3.754c0.785-1.12,1.537-2.057,2.229-2.783c0.704-0.738,1.374-1.316,1.996-1.743c0.637-0.429,1.271-0.727,1.894-0.9
	c0.636-0.174,1.271-0.255,1.894-0.255c0.301,0,0.613,0.022,0.946,0.058c0.348,0.023,0.693,0.08,1.052,0.16
	c0.357,0.081,0.681,0.177,0.947,0.279c0.275,0.093,0.474,0.207,0.599,0.313c0.117,0.113,0.209,0.243,0.268,0.379
	c0.057,0.128,0.104,0.313,0.15,0.556c0.045,0.229,0.081,0.588,0.103,1.063C221.575,101.834,221.587,102.482,221.587,103.291z
	 M199.019,127.686c0,0.993-0.058,1.742-0.184,2.273c-0.127,0.531-0.29,0.903-0.498,1.123c-0.195,0.219-0.494,0.403-0.887,0.574
	c-0.395,0.162-0.856,0.313-1.389,0.439c-0.529,0.126-1.107,0.219-1.729,0.287c-0.614,0.071-1.247,0.105-1.871,0.105
	c-1.697,0-3.163-0.219-4.399-0.648c-1.245-0.426-2.263-1.084-3.083-1.974c-0.807-0.9-1.408-2.02-1.79-3.369
	c-0.38-1.354-0.575-2.955-0.575-4.803v-15.462H179c-0.429,0-0.763-0.264-0.982-0.798c-0.23-0.529-0.346-1.407-0.346-2.654
	c0-0.646,0.033-1.198,0.09-1.648c0.059-0.451,0.14-0.811,0.256-1.075c0.104-0.254,0.255-0.439,0.416-0.555
	c0.172-0.113,0.368-0.173,0.599-0.173h3.581v-6.73c0-0.22,0.057-0.428,0.185-0.602c0.127-0.184,0.358-0.332,0.681-0.461
	c0.322-0.126,0.763-0.207,1.317-0.266c0.554-0.059,1.234-0.093,2.042-0.093c0.843,0,1.535,0.034,2.09,0.093
	c0.543,0.059,0.982,0.14,1.294,0.266c0.321,0.129,0.542,0.277,0.68,0.461c0.139,0.174,0.198,0.382,0.198,0.602v6.73h6.569
	c0.218,0,0.415,0.06,0.588,0.173c0.172,0.115,0.313,0.301,0.427,0.555c0.105,0.265,0.197,0.624,0.254,1.075
	c0.059,0.45,0.081,1.003,0.081,1.648c0,1.247-0.116,2.125-0.335,2.654c-0.23,0.534-0.553,0.798-0.981,0.798H191.1v14.18
	c0,1.641,0.266,2.874,0.784,3.695c0.52,0.829,1.441,1.234,2.77,1.234c0.451,0,0.855-0.036,1.225-0.117
	c0.357-0.081,0.682-0.161,0.959-0.265c0.277-0.104,0.52-0.195,0.716-0.278c0.185-0.081,0.357-0.116,0.521-0.116
	c0.138,0,0.264,0.035,0.393,0.116c0.114,0.083,0.218,0.245,0.287,0.475c0.058,0.242,0.128,0.564,0.185,0.971
	C198.996,126.53,199.019,127.049,199.019,127.686z M178.505,122.131c0,1.722-0.322,3.224-0.969,4.538
	c-0.636,1.305-1.547,2.399-2.714,3.278c-1.177,0.879-2.562,1.538-4.168,1.976c-1.593,0.438-3.336,0.657-5.207,0.657
	c-1.131,0-2.205-0.08-3.23-0.253c-1.028-0.164-1.942-0.382-2.748-0.636c-0.821-0.265-1.49-0.532-2.033-0.798
	c-0.543-0.274-0.936-0.53-1.188-0.762c-0.243-0.241-0.439-0.61-0.578-1.119c-0.126-0.509-0.196-1.259-0.196-2.25
	c0-0.647,0.022-1.18,0.07-1.573c0.046-0.391,0.114-0.701,0.194-0.943c0.094-0.232,0.209-0.394,0.347-0.475
	c0.129-0.081,0.303-0.117,0.508-0.117c0.242,0,0.613,0.14,1.098,0.429c0.485,0.276,1.085,0.589,1.812,0.922
	c0.717,0.337,1.559,0.659,2.519,0.949c0.958,0.298,2.042,0.437,3.255,0.437c0.774,0,1.455-0.08,2.056-0.229
	c0.59-0.161,1.108-0.381,1.548-0.682c0.449-0.29,0.772-0.659,1.003-1.12c0.219-0.45,0.336-0.97,0.336-1.548
	c0-0.681-0.209-1.258-0.625-1.741c-0.414-0.487-0.969-0.913-1.661-1.27c-0.681-0.359-1.455-0.707-2.332-1.018
	c-0.866-0.313-1.757-0.668-2.668-1.05s-1.801-0.821-2.678-1.314c-0.865-0.497-1.641-1.111-2.333-1.825
	c-0.68-0.729-1.234-1.595-1.65-2.61c-0.416-1.018-0.624-2.229-0.624-3.647c0-1.443,0.278-2.774,0.844-3.972
	c0.564-1.213,1.374-2.243,2.436-3.106c1.05-0.855,2.344-1.514,3.867-1.985c1.524-0.475,3.232-0.717,5.128-0.717
	c0.947,0,1.868,0.069,2.759,0.209c0.888,0.126,1.696,0.298,2.411,0.508c0.729,0.193,1.328,0.413,1.826,0.658
	c0.496,0.23,0.854,0.437,1.073,0.599c0.207,0.174,0.357,0.348,0.45,0.509c0.091,0.172,0.162,0.382,0.208,0.611
	c0.046,0.242,0.081,0.531,0.115,0.879c0.037,0.358,0.059,0.784,0.059,1.305c0,0.612-0.021,1.108-0.059,1.489
	c-0.034,0.382-0.094,0.692-0.172,0.91c-0.07,0.229-0.187,0.382-0.313,0.463c-0.14,0.081-0.301,0.117-0.474,0.117
	c-0.209,0-0.521-0.117-0.947-0.36c-0.439-0.231-0.969-0.483-1.615-0.763c-0.637-0.264-1.386-0.519-2.229-0.761
	c-0.844-0.229-1.813-0.346-2.888-0.346c-0.773,0-1.432,0.067-1.995,0.229c-0.566,0.165-1.028,0.385-1.389,0.683
	c-0.368,0.288-0.633,0.636-0.818,1.027c-0.173,0.394-0.266,0.819-0.266,1.272c0,0.691,0.208,1.279,0.647,1.754
	c0.427,0.472,0.981,0.889,1.687,1.258c0.702,0.357,1.487,0.692,2.388,1.015c0.891,0.314,1.79,0.661,2.702,1.03
	c0.912,0.367,1.813,0.807,2.702,1.304s1.688,1.095,2.392,1.825c0.69,0.715,1.256,1.58,1.683,2.584
	C178.288,119.568,178.505,120.757,178.505,122.131z M144.971,112.262c0.069-2.391-0.405-4.273-1.433-5.638
	c-1.027-1.359-2.61-2.041-4.756-2.041c-1.086,0-2.021,0.196-2.819,0.601c-0.807,0.403-1.464,0.956-1.997,1.639
	c-0.53,0.693-0.935,1.501-1.224,2.438c-0.277,0.934-0.438,1.938-0.485,3.001H144.971z M153.224,114.697
	c0,1.027-0.23,1.799-0.693,2.296c-0.46,0.499-1.095,0.74-1.903,0.74h-18.37c0,1.292,0.15,2.459,0.452,3.498
	c0.311,1.051,0.795,1.938,1.455,2.678c0.668,0.728,1.524,1.293,2.574,1.674c1.051,0.382,2.311,0.578,3.775,0.578
	c1.49,0,2.794-0.115,3.913-0.323c1.132-0.22,2.114-0.449,2.935-0.716c0.819-0.254,1.502-0.497,2.044-0.705
	c0.541-0.22,0.98-0.322,1.314-0.322c0.209,0,0.382,0.034,0.51,0.115c0.139,0.081,0.253,0.221,0.346,0.427
	c0.081,0.197,0.149,0.485,0.186,0.867c0.034,0.369,0.045,0.831,0.045,1.396c0,0.496-0.011,0.925-0.034,1.271
	c-0.024,0.345-0.059,0.646-0.105,0.896c-0.033,0.245-0.104,0.453-0.195,0.624c-0.092,0.174-0.208,0.336-0.358,0.486
	c-0.15,0.162-0.543,0.382-1.2,0.647c-0.656,0.266-1.489,0.529-2.507,0.797c-1.015,0.253-2.17,0.486-3.473,0.67
	c-1.317,0.195-2.713,0.287-4.203,0.287c-2.679,0-5.036-0.335-7.054-1.017c-2.01-0.67-3.695-1.697-5.058-3.069
	c-1.352-1.374-2.356-3.117-3.024-5.208c-0.66-2.102-0.992-4.562-0.992-7.377c0-2.68,0.345-5.104,1.049-7.253
	c0.693-2.158,1.709-3.981,3.037-5.482c1.337-1.502,2.957-2.645,4.86-3.43c1.905-0.794,4.053-1.188,6.443-1.188
	c2.529,0,4.688,0.37,6.476,1.12c1.79,0.739,3.267,1.778,4.411,3.095c1.155,1.314,1.998,2.876,2.54,4.688
	c0.543,1.803,0.807,3.764,0.807,5.876V114.697z M123.857,103.291c0,0.817-0.023,1.477-0.071,1.995
	c-0.045,0.521-0.114,0.925-0.206,1.226c-0.082,0.287-0.209,0.496-0.347,0.6c-0.152,0.117-0.335,0.173-0.566,0.173
	c-0.173,0-0.381-0.036-0.6-0.114c-0.232-0.081-0.485-0.162-0.761-0.255c-0.29-0.093-0.601-0.174-0.937-0.255
	s-0.705-0.113-1.119-0.113c-0.475,0-0.948,0.09-1.421,0.275c-0.473,0.195-0.958,0.497-1.467,0.9
	c-0.506,0.403-1.038,0.946-1.592,1.628c-0.554,0.669-1.143,1.512-1.778,2.494v18.807c0,0.23-0.058,0.431-0.195,0.601
	c-0.139,0.162-0.37,0.312-0.693,0.417c-0.335,0.114-0.763,0.197-1.304,0.254c-0.544,0.056-1.225,0.092-2.067,0.092
	c-0.831,0-1.524-0.036-2.057-0.092c-0.54-0.057-0.979-0.14-1.303-0.254c-0.334-0.105-0.565-0.255-0.693-0.417
	c-0.14-0.17-0.208-0.37-0.208-0.601v-30.168c0-0.22,0.057-0.427,0.174-0.587c0.114-0.176,0.312-0.313,0.611-0.431
	c0.288-0.112,0.669-0.193,1.131-0.252c0.462-0.059,1.04-0.08,1.745-0.08c0.714,0,1.315,0.021,1.788,0.08
	c0.474,0.059,0.843,0.14,1.097,0.252c0.266,0.117,0.451,0.255,0.554,0.431c0.115,0.16,0.174,0.367,0.174,0.587v3.754
	c0.785-1.12,1.536-2.057,2.229-2.783c0.703-0.738,1.374-1.316,1.996-1.743c0.636-0.429,1.271-0.727,1.896-0.9
	c0.633-0.174,1.27-0.255,1.893-0.255c0.3,0,0.611,0.022,0.946,0.058c0.345,0.023,0.692,0.08,1.05,0.16
	c0.358,0.081,0.681,0.177,0.946,0.279c0.278,0.093,0.475,0.207,0.601,0.313c0.115,0.113,0.209,0.243,0.265,0.379
	c0.058,0.128,0.105,0.313,0.151,0.556c0.046,0.229,0.081,0.588,0.104,1.063C123.845,101.834,123.857,102.482,123.857,103.291z
	 M102.201,103.291c0,0.817-0.022,1.477-0.069,1.995c-0.047,0.521-0.116,0.925-0.208,1.226c-0.081,0.287-0.208,0.496-0.347,0.6
	c-0.148,0.117-0.335,0.173-0.565,0.173c-0.174,0-0.381-0.036-0.6-0.114c-0.23-0.081-0.486-0.162-0.762-0.255
	c-0.289-0.093-0.6-0.174-0.936-0.255c-0.334-0.081-0.704-0.113-1.119-0.113c-0.473,0-0.946,0.09-1.419,0.275
	c-0.473,0.195-0.959,0.497-1.467,0.9c-0.509,0.403-1.038,0.946-1.595,1.628c-0.551,0.669-1.141,1.512-1.776,2.494v18.807
	c0,0.23-0.058,0.431-0.197,0.601c-0.139,0.162-0.368,0.312-0.69,0.417c-0.337,0.114-0.763,0.197-1.306,0.254
	c-0.542,0.056-1.225,0.092-2.068,0.092c-0.829,0-1.524-0.036-2.054-0.092c-0.543-0.057-0.981-0.14-1.304-0.254
	c-0.335-0.105-0.566-0.255-0.693-0.417c-0.138-0.17-0.207-0.37-0.207-0.601v-30.168c0-0.22,0.057-0.427,0.173-0.587
	c0.115-0.176,0.311-0.313,0.612-0.431c0.29-0.112,0.67-0.193,1.13-0.252c0.462-0.059,1.04-0.08,1.744-0.08
	c0.717,0,1.316,0.021,1.789,0.08c0.476,0.059,0.843,0.14,1.099,0.252c0.265,0.117,0.449,0.255,0.551,0.431
	c0.117,0.16,0.176,0.367,0.176,0.587v3.754c0.785-1.12,1.534-2.057,2.227-2.783c0.706-0.738,1.375-1.316,1.999-1.743
	c0.635-0.429,1.269-0.727,1.893-0.9c0.636-0.174,1.27-0.255,1.893-0.255c0.3,0,0.612,0.022,0.948,0.058
	c0.347,0.023,0.692,0.08,1.051,0.16c0.357,0.081,0.681,0.177,0.947,0.279c0.277,0.093,0.473,0.207,0.6,0.313
	c0.116,0.113,0.208,0.243,0.266,0.379c0.058,0.128,0.104,0.313,0.15,0.556c0.046,0.229,0.081,0.588,0.103,1.063
	C102.189,101.834,102.201,102.482,102.201,103.291z M70.523,112.262c0.07-2.391-0.403-4.273-1.431-5.638
	c-1.03-1.359-2.611-2.041-4.757-2.041c-1.085,0-2.021,0.196-2.817,0.601c-0.808,0.403-1.467,0.956-1.999,1.639
	c-0.53,0.693-0.936,1.501-1.223,2.438c-0.277,0.934-0.438,1.938-0.486,3.001H70.523z M78.777,114.697
	c0,1.027-0.231,1.799-0.692,2.296c-0.462,0.499-1.097,0.74-1.905,0.74h-18.37c0,1.292,0.15,2.459,0.451,3.498
	c0.312,1.051,0.798,1.938,1.457,2.678c0.669,0.728,1.522,1.293,2.573,1.674c1.051,0.382,2.31,0.578,3.777,0.578
	c1.489,0,2.794-0.115,3.914-0.323c1.131-0.22,2.112-0.449,2.933-0.716c0.82-0.254,1.501-0.497,2.043-0.705
	c0.544-0.22,0.981-0.322,1.315-0.322c0.209,0,0.381,0.034,0.509,0.115c0.138,0.081,0.253,0.221,0.345,0.427
	c0.081,0.197,0.15,0.485,0.187,0.867c0.033,0.369,0.045,0.831,0.045,1.396c0,0.496-0.012,0.925-0.035,1.271
	c-0.022,0.345-0.057,0.646-0.103,0.896c-0.035,0.245-0.104,0.453-0.196,0.624c-0.092,0.174-0.209,0.336-0.359,0.486
	c-0.148,0.162-0.541,0.382-1.199,0.647s-1.49,0.529-2.505,0.797c-1.017,0.253-2.17,0.486-3.474,0.67
	c-1.316,0.195-2.714,0.287-4.203,0.287c-2.68,0-5.035-0.335-7.054-1.017c-2.01-0.67-3.694-1.697-5.058-3.069
	c-1.35-1.374-2.355-3.117-3.024-5.208c-0.658-2.102-0.992-4.562-0.992-7.377c0-2.68,0.345-5.104,1.051-7.253
	c0.692-2.158,1.708-3.981,3.036-5.482c1.339-1.502,2.956-2.645,4.86-3.43c1.905-0.794,4.053-1.188,6.442-1.188
	c2.529,0,4.687,0.37,6.477,1.12c1.79,0.739,3.268,1.778,4.411,3.095c1.154,1.314,1.998,2.876,2.54,4.688
	c0.543,1.803,0.808,3.764,0.808,5.876V114.697z M48.567,127.686c0,0.993-0.057,1.742-0.186,2.273
	c-0.126,0.531-0.289,0.903-0.495,1.123c-0.198,0.219-0.498,0.403-0.89,0.574c-0.393,0.162-0.854,0.313-1.385,0.439
	c-0.531,0.126-1.108,0.219-1.731,0.287c-0.613,0.071-1.249,0.105-1.871,0.105c-1.699,0-3.164-0.219-4.4-0.648
	c-1.246-0.426-2.262-1.084-3.083-1.974c-0.808-0.9-1.409-2.02-1.791-3.369c-0.38-1.354-0.576-2.955-0.576-4.803v-15.462h-3.613
	c-0.428,0-0.763-0.264-0.982-0.798c-0.231-0.529-0.345-1.407-0.345-2.654c0-0.646,0.033-1.198,0.092-1.648
	c0.059-0.451,0.139-0.811,0.253-1.075c0.104-0.254,0.253-0.439,0.416-0.555c0.174-0.113,0.369-0.173,0.6-0.173h3.58v-6.73
	c0-0.22,0.059-0.428,0.184-0.602c0.128-0.184,0.359-0.332,0.682-0.461c0.323-0.126,0.762-0.207,1.316-0.266
	c0.554-0.059,1.236-0.093,2.043-0.093c0.844,0,1.536,0.034,2.089,0.093c0.543,0.059,0.981,0.14,1.293,0.266
	c0.323,0.129,0.542,0.277,0.682,0.461c0.138,0.174,0.196,0.382,0.196,0.602v6.73h6.568c0.22,0,0.417,0.06,0.59,0.173
	c0.172,0.115,0.312,0.301,0.426,0.555c0.104,0.265,0.198,0.624,0.254,1.075c0.059,0.45,0.081,1.003,0.081,1.648
	c0,1.247-0.115,2.125-0.335,2.654c-0.231,0.534-0.554,0.798-0.98,0.798h-6.604v14.18c0,1.641,0.266,2.874,0.785,3.695
	c0.519,0.829,1.443,1.234,2.771,1.234c0.45,0,0.854-0.036,1.223-0.117c0.357-0.081,0.681-0.161,0.959-0.265
	c0.275-0.104,0.517-0.195,0.715-0.278c0.184-0.081,0.357-0.116,0.52-0.116c0.137,0,0.266,0.035,0.392,0.116
	c0.116,0.083,0.219,0.245,0.289,0.475c0.059,0.242,0.128,0.564,0.185,0.971C48.545,126.53,48.567,127.049,48.567,127.686z"/>
<path fill-rule="evenodd" clip-rule="evenodd" fill="#FFFFFF" d="M166.011,11.909c2.377,1.891,4.565,3.943,6.565,6.165
	c0.298,0.33,0.524,0.994,0.529,1.428c0.034,2.987-0.12,6.134-0.454,9.382c-0.053,0.511-0.429,0.636-0.828,0.32
	c-2.713-2.15-5.6-4.198-8.673-6.153c-0.461-0.292-0.714-0.934-0.558-1.456c0.982-3.29,1.846-6.44,2.566-9.388
	C165.264,11.781,165.656,11.627,166.011,11.909"/>
<path fill-rule="evenodd" clip-rule="evenodd" fill="#FFFFFF" d="M184.18,24.106c1.6,2.482,2.996,5.094,4.173,7.807
	c0.174,0.405,0.437,1.086,0.572,1.496c0.907,2.752,1.59,5.6,2.044,8.504c0.07,0.443-0.14,0.501-0.414,0.151
	c-1.866-2.383-3.966-4.729-6.258-7c-0.356-0.353-0.6-1.019-0.569-1.521c0.207-3.213,0.225-6.334,0.046-9.302
	C183.749,23.808,183.937,23.728,184.18,24.106z"/>
<path fill-rule="evenodd" clip-rule="evenodd" fill="#FFFFFF" d="M118.647,13.479c3.029-0.056,6.206,0.081,9.476,0.402
	c0.508,0.05,0.629,0.429,0.314,0.833c-2.147,2.764-4.202,5.699-6.162,8.804c-0.295,0.468-0.938,0.734-1.457,0.582
	c-3.315-0.976-6.498-1.832-9.487-2.544c-0.437-0.105-0.582-0.5-0.3-0.859c1.899-2.399,3.958-4.625,6.177-6.665
	C117.537,13.728,118.204,13.488,118.647,13.479z"/>
<path fill-rule="evenodd" clip-rule="evenodd" fill="#FFFFFF" d="M118.152,26.538c3.616,1.34,7.328,2.774,11.164,4.311
	c0.569,0.227,0.82,0.902,0.55,1.484c-1.825,3.936-3.601,7.938-5.285,11.917c-0.249,0.593-0.916,0.859-1.468,0.588
	c-3.716-1.811-7.267-3.598-10.689-5.376c-0.499-0.26-0.74-0.931-0.526-1.477c1.439-3.665,3.054-7.308,4.809-10.847
	C116.967,26.613,117.627,26.34,118.152,26.538z"/>
<path fill-rule="evenodd" clip-rule="evenodd" fill="#FFFFFF" d="M161.885,42.777c3.714,1.81,7.268,3.597,10.688,5.375
	c0.498,0.258,0.742,0.931,0.527,1.477c-1.446,3.677-3.063,7.321-4.812,10.847c-0.26,0.524-0.921,0.794-1.446,0.601
	c-3.614-1.34-7.327-2.774-11.161-4.311c-0.578-0.231-0.823-0.902-0.552-1.485c1.819-3.921,3.593-7.924,5.285-11.917
	C160.665,42.772,161.326,42.504,161.885,42.777z"/>
<path fill-rule="evenodd" clip-rule="evenodd" fill="#FFFFFF" d="M102.817,34.847c3.343,1.852,6.827,3.695,10.478,5.542
	c0.543,0.277,0.814,0.981,0.59,1.558c-1.464,3.815-2.82,7.533-4.064,11.145c-0.181,0.527-0.731,0.739-1.205,0.45
	c-3.202-1.95-6.219-3.971-9.068-6.081c-0.416-0.311-0.679-1.008-0.575-1.52c0.707-3.471,1.594-7.012,2.657-10.603
	C101.793,34.795,102.33,34.575,102.817,34.847z"/>
<path fill-rule="evenodd" clip-rule="evenodd" fill="#FFFFFF" d="M148.778,58.89c3.82,1.462,7.529,2.803,11.148,4.036
	c0.528,0.181,0.727,0.726,0.432,1.211c-1.95,3.206-3.981,6.241-6.085,9.102c-0.311,0.42-1.005,0.697-1.513,0.593
	c-3.479-0.691-7.007-1.567-10.601-2.629c-0.54-0.161-0.748-0.708-0.477-1.198c1.845-3.35,3.694-6.854,5.541-10.505
	C147.505,58.945,148.202,58.669,148.778,58.89z"/>
<path fill-rule="evenodd" clip-rule="evenodd" fill="#FFFFFF" d="M164.186,64.277c3.307,0.975,6.489,1.831,9.496,2.55
	c0.435,0.104,0.596,0.504,0.313,0.863c-1.893,2.39-3.952,4.603-6.159,6.625c-0.331,0.301-1.009,0.54-1.452,0.547
	c-3.041,0.049-6.217-0.092-9.48-0.415c-0.505-0.049-0.628-0.43-0.313-0.834c2.134-2.74,4.185-5.662,6.139-8.754
	C163.023,64.391,163.666,64.125,164.186,64.277z"/>
<path fill-rule="evenodd" clip-rule="evenodd" fill="#FFFFFF" d="M73.856,30.016c2.539,1.738,5.307,3.522,8.256,5.323
	c0.463,0.281,0.696,0.937,0.547,1.47c-0.979,3.524-1.766,7.005-2.365,10.428c-0.086,0.505-0.449,0.669-0.828,0.326
	c-2.434-2.206-4.669-4.465-6.664-6.744c-0.292-0.334-0.558-0.988-0.556-1.435c0.016-2.993,0.275-6.005,0.775-9.013
	C73.096,29.92,73.488,29.764,73.856,30.016z"/>
<path fill-rule="evenodd" clip-rule="evenodd" fill="#FFFFFF" d="M113.214,59.114c2.715,2.147,5.601,4.193,8.674,6.148
	c0.458,0.291,0.715,0.934,0.558,1.456c-0.987,3.303-1.859,6.486-2.595,9.461c-0.107,0.434-0.501,0.575-0.853,0.298
	c-2.375-1.893-4.564-3.945-6.563-6.167c-0.3-0.33-0.527-0.987-0.529-1.428c-0.021-3.012,0.143-6.186,0.48-9.448
	C112.438,58.924,112.814,58.798,113.214,59.114z"/>
<path fill-rule="evenodd" clip-rule="evenodd" fill="#FFFFFF" d="M125.868,67.519c3.403,1.721,6.951,3.293,10.518,4.664
	c0.526,0.202,0.76,0.739,0.495,1.217c-1.688,3.027-3.351,5.892-4.938,8.52c-0.231,0.383-0.793,0.599-1.23,0.447
	c-2.955-1.013-5.849-2.296-8.578-3.805c-0.405-0.223-0.624-0.784-0.495-1.212c0.878-2.942,1.886-6.096,2.996-9.38
	C124.81,67.451,125.362,67.264,125.868,67.519z"/>
<path fill-rule="evenodd" clip-rule="evenodd" fill="#FFFFFF" d="M140.728,73.617c3.511,0.965,6.966,1.731,10.381,2.3
	c0.501,0.086,0.66,0.448,0.318,0.83c-2.19,2.441-4.434,4.691-6.679,6.698c-0.328,0.297-0.967,0.568-1.413,0.57
	c-2.988,0.008-5.979-0.234-8.976-0.728c-0.448-0.073-0.601-0.461-0.352-0.831c1.712-2.542,3.482-5.326,5.267-8.276
	C139.558,73.713,140.201,73.471,140.728,73.617z"/>
<path fill-rule="evenodd" clip-rule="evenodd" fill="#FFFFFF" d="M155.189,76.368c3.223,0.177,6.366,0.162,9.385-0.053
	c0.442-0.03,0.541,0.164,0.166,0.411c-2.465,1.621-5.046,3.045-7.699,4.244c-0.396,0.18-1.072,0.44-1.49,0.582
	c-2.8,0.951-5.673,1.666-8.585,2.151c-0.445,0.073-0.518-0.116-0.174-0.395c2.326-1.889,4.64-4.021,6.89-6.343
	C154.034,76.604,154.689,76.341,155.189,76.368z"/>
<path fill-rule="evenodd" clip-rule="evenodd" fill="#FFFFFF" d="M129.461,6.839c2.79-0.949,5.662-1.669,8.583-2.152
	c0.442-0.075,0.511,0.12,0.171,0.393c-2.318,1.859-4.623,3.965-6.866,6.274c-0.351,0.363-1.006,0.629-1.506,0.601
	c-3.231-0.174-6.376-0.154-9.386,0.067c-0.441,0.032-0.527-0.163-0.153-0.408c2.458-1.613,5.028-3.017,7.676-4.192
	C128.375,7.246,129.045,6.98,129.461,6.839z"/>
<path fill-rule="evenodd" clip-rule="evenodd" fill="#FFFFFF" d="M141.673,4.373c2.988-0.007,5.979,0.235,8.976,0.727
	c0.442,0.071,0.596,0.468,0.351,0.831c-1.703,2.513-3.46,5.269-5.236,8.204c-0.284,0.466-0.934,0.707-1.456,0.563
	c-3.511-0.963-6.967-1.729-10.384-2.295c-0.502-0.083-0.662-0.448-0.317-0.829c2.183-2.426,4.415-4.653,6.65-6.632
	C140.582,4.652,141.226,4.375,141.673,4.373z"/>
<path fill-rule="evenodd" clip-rule="evenodd" fill="#FFFFFF" d="M154.299,6.021c2.951,1.011,5.845,2.292,8.579,3.804
	c0.403,0.223,0.617,0.79,0.494,1.212c-0.867,2.914-1.862,6.038-2.965,9.306c-0.177,0.519-0.731,0.706-1.233,0.452
	c-3.411-1.724-6.961-3.296-10.523-4.665c-0.526-0.203-0.759-0.739-0.491-1.217c1.682-3.01,3.329-5.848,4.907-8.446
	C153.295,6.092,153.861,5.87,154.299,6.021z"/>
<path fill-rule="evenodd" clip-rule="evenodd" fill="#FFFFFF" d="M182.021,49.503c3.028,1.687,5.89,3.348,8.537,4.952
	c0.383,0.231,0.618,0.807,0.465,1.25c-1.024,2.966-2.306,5.858-3.813,8.598c-0.225,0.412-0.811,0.624-1.238,0.495
	c-2.967-0.884-6.119-1.892-9.404-3c-0.517-0.176-0.696-0.728-0.44-1.239c1.723-3.421,3.294-6.965,4.679-10.55
	C181.014,49.477,181.544,49.236,182.021,49.503"/>
<path fill-rule="evenodd" clip-rule="evenodd" fill="#FFFFFF" d="M165.844,26.133c3.2,1.95,6.218,3.979,9.065,6.093
	c0.417,0.311,0.681,1.011,0.574,1.522c-0.716,3.505-1.61,7.063-2.682,10.672c-0.162,0.545-0.7,0.762-1.188,0.494
	c-3.344-1.856-6.828-3.704-10.477-5.555c-0.553-0.278-0.815-0.981-0.593-1.561c1.473-3.833,2.836-7.572,4.09-11.22
	C164.819,26.052,165.364,25.837,165.844,26.133z"/>
<path fill-rule="evenodd" clip-rule="evenodd" fill="#FFFFFF" d="M132.046,51.665c3.922,1.822,7.947,3.607,11.938,5.294
	c0.588,0.249,0.851,0.915,0.577,1.478c-1.812,3.708-3.605,7.274-5.385,10.692c-0.26,0.5-0.931,0.751-1.474,0.54
	c-3.67-1.44-7.332-3.062-10.856-4.816c-0.522-0.26-0.788-0.927-0.59-1.455c1.338-3.612,2.775-7.339,4.307-11.169
	C130.794,51.649,131.465,51.395,132.046,51.665z"/>
<path fill-rule="evenodd" clip-rule="evenodd" fill="#FFFFFF" d="M139.619,34.416c4.017,1.723,8.083,3.525,12.063,5.348
	c0.588,0.27,0.863,0.987,0.607,1.583c-1.725,4.021-3.517,8.06-5.331,12.024c-0.271,0.59-0.988,0.867-1.581,0.612
	c-4.022-1.724-8.088-3.528-12.062-5.349c-0.586-0.268-0.863-0.984-0.605-1.582c1.718-4.007,3.507-8.044,5.33-12.024
	C138.309,34.438,139.026,34.161,139.619,34.416z"/>
<path fill-rule="evenodd" clip-rule="evenodd" fill="#FFFFFF" d="M147.332,18.651c3.665,1.435,7.325,3.058,10.858,4.814
	c0.52,0.259,0.784,0.927,0.591,1.454c-1.353,3.642-2.798,7.383-4.337,11.229c-0.232,0.579-0.903,0.832-1.482,0.563
	c-3.929-1.825-7.955-3.61-11.94-5.293c-0.588-0.25-0.851-0.916-0.576-1.479c1.816-3.721,3.62-7.302,5.41-10.751
	C146.116,18.689,146.789,18.44,147.332,18.651z"/>
<path fill-rule="evenodd" clip-rule="evenodd" fill="#FFFFFF" d="M132.27,14.494c3.479,0.689,7.008,1.564,10.603,2.625
	c0.535,0.158,0.75,0.708,0.479,1.198c-1.861,3.376-3.716,6.896-5.57,10.563c-0.278,0.553-0.985,0.826-1.552,0.608
	c-3.823-1.461-7.531-2.805-11.151-4.037c-0.528-0.179-0.726-0.726-0.432-1.212c1.956-3.215,3.992-6.268,6.109-9.151
	C131.064,14.668,131.76,14.393,132.27,14.494z"/>
<path fill-rule="evenodd" clip-rule="evenodd" fill="#FFFFFF" d="M94.875,45.877c1.858,2.371,3.956,4.712,6.255,6.987
	c0.359,0.353,0.602,1.019,0.569,1.52c-0.207,3.228-0.232,6.373-0.069,9.365c0.026,0.441-0.166,0.513-0.408,0.137
	c-1.602-2.489-2.999-5.101-4.167-7.807c-0.175-0.404-0.425-1.07-0.56-1.487c-0.893-2.77-1.57-5.64-2.023-8.554
	C94.402,45.595,94.603,45.526,94.875,45.877z"/>
<path fill-rule="evenodd" clip-rule="evenodd" fill="#FFFFFF" d="M91.983,19.682c2.952,0.881,6.104,1.889,9.396,2.999
	c0.517,0.176,0.695,0.73,0.438,1.239c-1.727,3.433-3.297,6.977-4.676,10.55c-0.206,0.533-0.736,0.772-1.214,0.505
	c-3.034-1.692-5.896-3.352-8.529-4.949c-0.382-0.232-0.604-0.802-0.451-1.245c1.019-2.957,2.301-5.847,3.811-8.599
	C90.985,19.772,91.554,19.555,91.983,19.682z"/>
<path fill-rule="evenodd" clip-rule="evenodd" fill="#FFFFFF" d="M198.516,38.022c2.429,2.203,4.661,4.465,6.667,6.754
	c0.294,0.335,0.574,0.998,0.567,1.446c-0.022,3.013-0.288,6.035-0.793,9.051c-0.074,0.454-0.48,0.601-0.851,0.349
	c-2.55-1.744-5.319-3.53-8.263-5.328c-0.463-0.281-0.695-0.935-0.546-1.47c0.983-3.537,1.781-7.03,2.389-10.478
	C197.777,37.842,198.137,37.678,198.516,38.022z"/>
</svg>
